<svg id="Ebene_1" data-name="Ebene 1" xmlns="http://www.w3.org/2000/svg" viewBox="0 0 512.85 523.74"><defs><style>.cls-1{fill:#7382d3;}.cls-2,.cls-3{fill:#fff;}.cls-3{opacity:0.25;}</style></defs><rect class="cls-1" y="23.74" width="498.83" height="500" rx="159.62"/><rect id="pawn" class="cls-2" x="193.19" y="229.22" width="116.87" height="159.15"/><path id="pawn-2" data-name="pawn" class="cls-1" d="M178.56,202.64h53.33A363.32,363.32,0,0,1,227,262.75c-8.64,51-27.53,83.88-48.26,84.1Z" transform="translate(0 23.74)"/><path id="pawn-3" data-name="pawn" class="cls-1" d="M324.69,202.11H271.36a369.66,369.66,0,0,0,4.85,60.55c8.65,51.35,27.53,84.5,48.27,84.72Z" transform="translate(0 23.74)"/><path class="cls-3" d="M406.47,1.34h92.36a0,0,0,0,1,0,0V249.83a0,0,0,0,1,0,0H250.34a0,0,0,0,1,0,0V157.47A156.13,156.13,0,0,1,406.47,1.34Z" transform="translate(500.17 -225.26) rotate(90)"/><path class="cls-3" d="M156.53,250.06h93.81a0,0,0,0,1,0,0V500a0,0,0,0,1,0,0H.4a0,0,0,0,1,0,0V406.19A156.13,156.13,0,0,1,156.53,250.06Z" transform="translate(-249.66 524.15) rotate(-90)"/><rect id="pawn-4" data-name="pawn" class="cls-2" x="160.1" y="363.39" width="183.04" height="44.43"/><circle id="pawn-5" data-name="pawn" class="cls-2" cx="251.62" cy="192" r="52.2"/><rect class="cls-3" x="245.45" y="-17.57" width="273.57" height="261.23" transform="translate(495.28 -245.45) rotate(90)"/></svg>